<svg xmlns="http://www.w3.org/2000/svg" width="621" height="718" viewBox="0 0 621 718">
  <defs>
    <style>
      .cls-1 {
        fill: #585858;
        fill-rule: evenodd;
      }
    </style>
  </defs>
  <path class="cls-1" d="M0,954.178L595.864,0H622L0,996V954.178ZM503.811,0h26.133L0,848.6V806.77Zm-93.3,0h26.133L0,699.2V657.37Zm-93.3,0h26.133L0,549.8V507.97Zm-93.3,0h26.133L0,400.4V358.57ZM129.379,0H155.5L0,249V207.178ZM37.311,0H63.444L0,101.6V59.77ZM73.39,996L622,117.523V159.37L99.511,996H73.39Zm99.526,0L622,276.893v41.822L199.037,996H172.916Zm100.133,0L622,437.234v41.847L299.185,996H273.049Zm99.526,0L622,596.6v41.822L398.7,996H372.575Zm100.758,0L622,757.966v41.827L499.466,996H473.333Zm99.526,0L622,917.311v41.827L598.977,996H572.859Z"/>
</svg>
